<mxfile host="app.diagrams.net" modified="2023-10-19T19:38:30.182Z" agent="Mozilla/5.0 (Windows NT 10.0; Win64; x64) AppleWebKit/537.36 (KHTML, like Gecko) Chrome/118.0.0.0 Safari/537.36" etag="Uk5vP_Ua-jUpK1RKnH8h" version="22.0.5" type="device">
  <diagram name="Página-1" id="YLCKNZz3uXRsLrMQxNXE">
    <mxGraphModel dx="1633" dy="839" grid="1" gridSize="10" guides="1" tooltips="1" connect="1" arrows="1" fold="1" page="1" pageScale="1" pageWidth="1169" pageHeight="1654" math="0" shadow="0">
      <root>
        <mxCell id="0" />
        <mxCell id="1" parent="0" />
        <mxCell id="QekTmRkoF0TSVLQIzqgp-1" value="Jogos Olímpicos" style="whiteSpace=wrap;html=1;align=center;" parent="1" vertex="1">
          <mxGeometry x="272" y="666.44" width="100" height="40" as="geometry" />
        </mxCell>
        <mxCell id="QekTmRkoF0TSVLQIzqgp-44" style="rounded=0;orthogonalLoop=1;jettySize=auto;html=1;endArrow=none;endFill=0;edgeStyle=orthogonalEdgeStyle;entryX=0.5;entryY=0;entryDx=0;entryDy=0;" parent="1" source="QekTmRkoF0TSVLQIzqgp-2" target="QekTmRkoF0TSVLQIzqgp-45" edge="1">
          <mxGeometry relative="1" as="geometry">
            <mxPoint x="437" y="916.44" as="targetPoint" />
            <Array as="points" />
          </mxGeometry>
        </mxCell>
        <mxCell id="QekTmRkoF0TSVLQIzqgp-49" value="N" style="edgeLabel;html=1;align=center;verticalAlign=middle;resizable=0;points=[];" parent="QekTmRkoF0TSVLQIzqgp-44" vertex="1" connectable="0">
          <mxGeometry x="-0.7371" relative="1" as="geometry">
            <mxPoint x="-7" y="1" as="offset" />
          </mxGeometry>
        </mxCell>
        <mxCell id="QekTmRkoF0TSVLQIzqgp-2" value="Atletas" style="whiteSpace=wrap;html=1;align=center;" parent="1" vertex="1">
          <mxGeometry x="272" y="826.44" width="100" height="40" as="geometry" />
        </mxCell>
        <mxCell id="QekTmRkoF0TSVLQIzqgp-3" value="Provas" style="whiteSpace=wrap;html=1;align=center;" parent="1" vertex="1">
          <mxGeometry x="577" y="826.44" width="100" height="40" as="geometry" />
        </mxCell>
        <mxCell id="QekTmRkoF0TSVLQIzqgp-5" style="edgeStyle=orthogonalEdgeStyle;rounded=0;orthogonalLoop=1;jettySize=auto;html=1;exitX=1;exitY=0.5;exitDx=0;exitDy=0;endArrow=none;endFill=0;" parent="1" source="QekTmRkoF0TSVLQIzqgp-4" target="QekTmRkoF0TSVLQIzqgp-3" edge="1">
          <mxGeometry relative="1" as="geometry" />
        </mxCell>
        <mxCell id="QekTmRkoF0TSVLQIzqgp-12" value="N" style="edgeLabel;html=1;align=center;verticalAlign=middle;resizable=0;points=[];" parent="QekTmRkoF0TSVLQIzqgp-5" vertex="1" connectable="0">
          <mxGeometry x="0.6897" y="2" relative="1" as="geometry">
            <mxPoint x="-1" y="-6" as="offset" />
          </mxGeometry>
        </mxCell>
        <mxCell id="QekTmRkoF0TSVLQIzqgp-6" style="edgeStyle=orthogonalEdgeStyle;rounded=0;orthogonalLoop=1;jettySize=auto;html=1;exitX=0;exitY=0.5;exitDx=0;exitDy=0;endArrow=none;endFill=0;" parent="1" source="QekTmRkoF0TSVLQIzqgp-4" target="QekTmRkoF0TSVLQIzqgp-2" edge="1">
          <mxGeometry relative="1" as="geometry" />
        </mxCell>
        <mxCell id="QekTmRkoF0TSVLQIzqgp-60" value="N" style="edgeLabel;html=1;align=center;verticalAlign=middle;resizable=0;points=[];" parent="QekTmRkoF0TSVLQIzqgp-6" vertex="1" connectable="0">
          <mxGeometry x="0.6903" y="-2" relative="1" as="geometry">
            <mxPoint y="-6" as="offset" />
          </mxGeometry>
        </mxCell>
        <mxCell id="QekTmRkoF0TSVLQIzqgp-61" style="edgeStyle=orthogonalEdgeStyle;rounded=0;orthogonalLoop=1;jettySize=auto;html=1;exitX=0.5;exitY=1;exitDx=0;exitDy=0;endArrow=none;endFill=0;" parent="1" source="QekTmRkoF0TSVLQIzqgp-4" target="QekTmRkoF0TSVLQIzqgp-62" edge="1">
          <mxGeometry relative="1" as="geometry">
            <mxPoint x="476.7931034482758" y="926.44" as="targetPoint" />
          </mxGeometry>
        </mxCell>
        <mxCell id="QekTmRkoF0TSVLQIzqgp-4" value="Disputar" style="shape=rhombus;perimeter=rhombusPerimeter;whiteSpace=wrap;html=1;align=center;" parent="1" vertex="1">
          <mxGeometry x="427" y="826.44" width="100" height="40" as="geometry" />
        </mxCell>
        <mxCell id="QekTmRkoF0TSVLQIzqgp-68" style="edgeStyle=orthogonalEdgeStyle;rounded=0;orthogonalLoop=1;jettySize=auto;html=1;exitX=1;exitY=0.5;exitDx=0;exitDy=0;endArrow=none;endFill=0;" parent="1" source="QekTmRkoF0TSVLQIzqgp-7" target="QekTmRkoF0TSVLQIzqgp-69" edge="1">
          <mxGeometry relative="1" as="geometry">
            <mxPoint x="436.9999999999998" y="766.7503448275863" as="targetPoint" />
          </mxGeometry>
        </mxCell>
        <mxCell id="QekTmRkoF0TSVLQIzqgp-7" value="Inscrever" style="shape=rhombus;perimeter=rhombusPerimeter;whiteSpace=wrap;html=1;align=center;" parent="1" vertex="1">
          <mxGeometry x="272" y="746.44" width="100" height="40" as="geometry" />
        </mxCell>
        <mxCell id="QekTmRkoF0TSVLQIzqgp-8" style="edgeStyle=orthogonalEdgeStyle;rounded=0;orthogonalLoop=1;jettySize=auto;html=1;endArrow=none;endFill=0;entryX=0.5;entryY=1;entryDx=0;entryDy=0;" parent="1" source="QekTmRkoF0TSVLQIzqgp-2" target="QekTmRkoF0TSVLQIzqgp-7" edge="1">
          <mxGeometry relative="1" as="geometry">
            <mxPoint x="497" y="736.44" as="sourcePoint" />
            <mxPoint x="442" y="736.44" as="targetPoint" />
          </mxGeometry>
        </mxCell>
        <mxCell id="QekTmRkoF0TSVLQIzqgp-11" value="N" style="edgeLabel;html=1;align=center;verticalAlign=middle;resizable=0;points=[];" parent="QekTmRkoF0TSVLQIzqgp-8" vertex="1" connectable="0">
          <mxGeometry x="-0.65" y="1" relative="1" as="geometry">
            <mxPoint x="-6" y="-2" as="offset" />
          </mxGeometry>
        </mxCell>
        <mxCell id="QekTmRkoF0TSVLQIzqgp-9" style="edgeStyle=orthogonalEdgeStyle;rounded=0;orthogonalLoop=1;jettySize=auto;html=1;endArrow=none;endFill=0;entryX=0.5;entryY=0;entryDx=0;entryDy=0;" parent="1" source="QekTmRkoF0TSVLQIzqgp-1" target="QekTmRkoF0TSVLQIzqgp-7" edge="1">
          <mxGeometry relative="1" as="geometry">
            <mxPoint x="447" y="866.44" as="sourcePoint" />
            <mxPoint x="392" y="866.44" as="targetPoint" />
          </mxGeometry>
        </mxCell>
        <mxCell id="QekTmRkoF0TSVLQIzqgp-10" value="N" style="edgeLabel;html=1;align=center;verticalAlign=middle;resizable=0;points=[];" parent="QekTmRkoF0TSVLQIzqgp-9" vertex="1" connectable="0">
          <mxGeometry x="-0.7921" relative="1" as="geometry">
            <mxPoint x="-7" y="3" as="offset" />
          </mxGeometry>
        </mxCell>
        <mxCell id="QekTmRkoF0TSVLQIzqgp-13" value="Ano" style="ellipse;whiteSpace=wrap;html=1;align=center;" parent="1" vertex="1">
          <mxGeometry x="217" y="606.44" width="100" height="40" as="geometry" />
        </mxCell>
        <mxCell id="QekTmRkoF0TSVLQIzqgp-15" value="" style="endArrow=none;html=1;rounded=0;" parent="1" source="QekTmRkoF0TSVLQIzqgp-20" target="QekTmRkoF0TSVLQIzqgp-1" edge="1">
          <mxGeometry relative="1" as="geometry">
            <mxPoint x="369.6193863622814" y="635.1927673459593" as="sourcePoint" />
            <mxPoint x="677" y="666.44" as="targetPoint" />
          </mxGeometry>
        </mxCell>
        <mxCell id="QekTmRkoF0TSVLQIzqgp-16" value="" style="endArrow=none;html=1;rounded=0;" parent="1" source="QekTmRkoF0TSVLQIzqgp-13" target="QekTmRkoF0TSVLQIzqgp-1" edge="1">
          <mxGeometry relative="1" as="geometry">
            <mxPoint x="387" y="706.44" as="sourcePoint" />
            <mxPoint x="547" y="706.44" as="targetPoint" />
          </mxGeometry>
        </mxCell>
        <mxCell id="QekTmRkoF0TSVLQIzqgp-20" value="ID_evento" style="ellipse;whiteSpace=wrap;html=1;align=center;fontStyle=4;" parent="1" vertex="1">
          <mxGeometry x="337" y="606.44" width="100" height="40" as="geometry" />
        </mxCell>
        <mxCell id="QekTmRkoF0TSVLQIzqgp-21" value="Nº_atleta" style="ellipse;whiteSpace=wrap;html=1;align=center;fontStyle=4;" parent="1" vertex="1">
          <mxGeometry x="337" y="776.44" width="89.5" height="40" as="geometry" />
        </mxCell>
        <mxCell id="QekTmRkoF0TSVLQIzqgp-22" value="" style="endArrow=none;html=1;rounded=0;" parent="1" source="QekTmRkoF0TSVLQIzqgp-21" target="QekTmRkoF0TSVLQIzqgp-2" edge="1">
          <mxGeometry relative="1" as="geometry">
            <mxPoint x="177" y="786.44" as="sourcePoint" />
            <mxPoint x="337" y="786.44" as="targetPoint" />
          </mxGeometry>
        </mxCell>
        <mxCell id="QekTmRkoF0TSVLQIzqgp-23" value="Nome" style="ellipse;whiteSpace=wrap;html=1;align=center;" parent="1" vertex="1">
          <mxGeometry x="347.5" y="870" width="80" height="36.44" as="geometry" />
        </mxCell>
        <mxCell id="QekTmRkoF0TSVLQIzqgp-24" value="" style="endArrow=none;html=1;rounded=0;" parent="1" source="QekTmRkoF0TSVLQIzqgp-23" target="QekTmRkoF0TSVLQIzqgp-2" edge="1">
          <mxGeometry relative="1" as="geometry">
            <mxPoint x="217" y="966.44" as="sourcePoint" />
            <mxPoint x="377" y="966.44" as="targetPoint" />
          </mxGeometry>
        </mxCell>
        <mxCell id="QekTmRkoF0TSVLQIzqgp-25" value="Data de Nascimento" style="ellipse;whiteSpace=wrap;html=1;align=center;" parent="1" vertex="1">
          <mxGeometry x="127" y="796.44" width="100" height="40" as="geometry" />
        </mxCell>
        <mxCell id="QekTmRkoF0TSVLQIzqgp-27" value="Record Pessoal" style="ellipse;whiteSpace=wrap;html=1;align=center;" parent="1" vertex="1">
          <mxGeometry x="157" y="746.44" width="100" height="40" as="geometry" />
        </mxCell>
        <mxCell id="QekTmRkoF0TSVLQIzqgp-28" value="" style="endArrow=none;html=1;rounded=0;" parent="1" source="QekTmRkoF0TSVLQIzqgp-2" target="QekTmRkoF0TSVLQIzqgp-27" edge="1">
          <mxGeometry relative="1" as="geometry">
            <mxPoint x="357" y="1006.44" as="sourcePoint" />
            <mxPoint x="517" y="1006.44" as="targetPoint" />
          </mxGeometry>
        </mxCell>
        <mxCell id="QekTmRkoF0TSVLQIzqgp-34" value="Possuir" style="shape=rhombus;perimeter=rhombusPerimeter;whiteSpace=wrap;html=1;align=center;" parent="1" vertex="1">
          <mxGeometry x="157" y="876.44" width="100" height="40" as="geometry" />
        </mxCell>
        <mxCell id="QekTmRkoF0TSVLQIzqgp-35" value="" style="endArrow=none;html=1;rounded=0;entryX=0.5;entryY=0;entryDx=0;entryDy=0;edgeStyle=orthogonalEdgeStyle;" parent="1" source="QekTmRkoF0TSVLQIzqgp-2" target="QekTmRkoF0TSVLQIzqgp-34" edge="1">
          <mxGeometry relative="1" as="geometry">
            <mxPoint x="337" y="896.44" as="sourcePoint" />
            <mxPoint x="264" y="949.44" as="targetPoint" />
            <Array as="points">
              <mxPoint x="207" y="846.44" />
            </Array>
          </mxGeometry>
        </mxCell>
        <mxCell id="QekTmRkoF0TSVLQIzqgp-36" value="1" style="edgeLabel;html=1;align=center;verticalAlign=middle;resizable=0;points=[];" parent="QekTmRkoF0TSVLQIzqgp-35" vertex="1" connectable="0">
          <mxGeometry x="-0.8171" y="1" relative="1" as="geometry">
            <mxPoint x="-2" y="8" as="offset" />
          </mxGeometry>
        </mxCell>
        <mxCell id="QekTmRkoF0TSVLQIzqgp-37" value="Credenciais" style="whiteSpace=wrap;html=1;align=center;" parent="1" vertex="1">
          <mxGeometry x="157" y="966.44" width="100" height="40" as="geometry" />
        </mxCell>
        <mxCell id="QekTmRkoF0TSVLQIzqgp-38" value="" style="endArrow=none;html=1;rounded=0;entryX=0.5;entryY=1;entryDx=0;entryDy=0;" parent="1" source="QekTmRkoF0TSVLQIzqgp-37" target="QekTmRkoF0TSVLQIzqgp-34" edge="1">
          <mxGeometry relative="1" as="geometry">
            <mxPoint x="297" y="951.44" as="sourcePoint" />
            <mxPoint x="297" y="1011.44" as="targetPoint" />
          </mxGeometry>
        </mxCell>
        <mxCell id="QekTmRkoF0TSVLQIzqgp-39" value="1" style="edgeLabel;html=1;align=center;verticalAlign=middle;resizable=0;points=[];" parent="QekTmRkoF0TSVLQIzqgp-38" vertex="1" connectable="0">
          <mxGeometry x="-0.8171" y="1" relative="1" as="geometry">
            <mxPoint x="-5" y="-6" as="offset" />
          </mxGeometry>
        </mxCell>
        <mxCell id="QekTmRkoF0TSVLQIzqgp-40" value="Código de Barras" style="ellipse;whiteSpace=wrap;html=1;align=center;" parent="1" vertex="1">
          <mxGeometry x="47" y="946.44" width="100" height="40" as="geometry" />
        </mxCell>
        <mxCell id="QekTmRkoF0TSVLQIzqgp-41" value="Tipo de Acesso" style="ellipse;whiteSpace=wrap;html=1;align=center;" parent="1" vertex="1">
          <mxGeometry x="47" y="996.44" width="100" height="40" as="geometry" />
        </mxCell>
        <mxCell id="QekTmRkoF0TSVLQIzqgp-42" value="" style="endArrow=none;html=1;rounded=0;" parent="1" source="QekTmRkoF0TSVLQIzqgp-40" target="QekTmRkoF0TSVLQIzqgp-37" edge="1">
          <mxGeometry relative="1" as="geometry">
            <mxPoint x="17" y="1046.44" as="sourcePoint" />
            <mxPoint x="177" y="1046.44" as="targetPoint" />
          </mxGeometry>
        </mxCell>
        <mxCell id="QekTmRkoF0TSVLQIzqgp-43" value="" style="endArrow=none;html=1;rounded=0;" parent="1" source="QekTmRkoF0TSVLQIzqgp-37" target="QekTmRkoF0TSVLQIzqgp-41" edge="1">
          <mxGeometry relative="1" as="geometry">
            <mxPoint x="307" y="1036.44" as="sourcePoint" />
            <mxPoint x="467" y="1036.44" as="targetPoint" />
          </mxGeometry>
        </mxCell>
        <mxCell id="QekTmRkoF0TSVLQIzqgp-45" value="Pertencer" style="shape=rhombus;perimeter=rhombusPerimeter;whiteSpace=wrap;html=1;align=center;" parent="1" vertex="1">
          <mxGeometry x="272" y="896.44" width="100" height="40" as="geometry" />
        </mxCell>
        <mxCell id="QekTmRkoF0TSVLQIzqgp-46" value="Delegações" style="whiteSpace=wrap;html=1;align=center;" parent="1" vertex="1">
          <mxGeometry x="272" y="966.44" width="100" height="40" as="geometry" />
        </mxCell>
        <mxCell id="QekTmRkoF0TSVLQIzqgp-47" value="" style="endArrow=none;html=1;rounded=0;entryX=0.5;entryY=1;entryDx=0;entryDy=0;" parent="1" source="QekTmRkoF0TSVLQIzqgp-46" target="QekTmRkoF0TSVLQIzqgp-45" edge="1">
          <mxGeometry relative="1" as="geometry">
            <mxPoint x="347" y="1066.44" as="sourcePoint" />
            <mxPoint x="507" y="1066.44" as="targetPoint" />
          </mxGeometry>
        </mxCell>
        <mxCell id="QekTmRkoF0TSVLQIzqgp-50" value="1" style="edgeLabel;html=1;align=center;verticalAlign=middle;resizable=0;points=[];" parent="QekTmRkoF0TSVLQIzqgp-47" vertex="1" connectable="0">
          <mxGeometry x="-0.3905" y="2" relative="1" as="geometry">
            <mxPoint x="-5" as="offset" />
          </mxGeometry>
        </mxCell>
        <mxCell id="QekTmRkoF0TSVLQIzqgp-53" value="" style="endArrow=none;html=1;rounded=0;exitX=0;exitY=0.75;exitDx=0;exitDy=0;entryX=1;entryY=0.75;entryDx=0;entryDy=0;" parent="1" source="QekTmRkoF0TSVLQIzqgp-2" target="QekTmRkoF0TSVLQIzqgp-2" edge="1">
          <mxGeometry relative="1" as="geometry">
            <mxPoint x="407" y="936.44" as="sourcePoint" />
            <mxPoint x="567" y="936.44" as="targetPoint" />
          </mxGeometry>
        </mxCell>
        <mxCell id="QekTmRkoF0TSVLQIzqgp-54" value="País" style="ellipse;whiteSpace=wrap;html=1;align=center;" parent="1" vertex="1">
          <mxGeometry x="200" y="1046" width="100" height="40" as="geometry" />
        </mxCell>
        <mxCell id="QekTmRkoF0TSVLQIzqgp-55" value="" style="endArrow=none;html=1;rounded=0;" parent="1" source="QekTmRkoF0TSVLQIzqgp-46" target="QekTmRkoF0TSVLQIzqgp-54" edge="1">
          <mxGeometry relative="1" as="geometry">
            <mxPoint x="347" y="1066.44" as="sourcePoint" />
            <mxPoint x="507" y="1066.44" as="targetPoint" />
          </mxGeometry>
        </mxCell>
        <mxCell id="QekTmRkoF0TSVLQIzqgp-56" value="Nº Atletas Inscritos" style="ellipse;whiteSpace=wrap;html=1;align=center;" parent="1" vertex="1">
          <mxGeometry x="272" y="1087.54" width="100" height="40" as="geometry" />
        </mxCell>
        <mxCell id="QekTmRkoF0TSVLQIzqgp-57" value="" style="endArrow=none;html=1;rounded=0;" parent="1" source="QekTmRkoF0TSVLQIzqgp-56" target="QekTmRkoF0TSVLQIzqgp-46" edge="1">
          <mxGeometry relative="1" as="geometry">
            <mxPoint x="307" y="1046.44" as="sourcePoint" />
            <mxPoint x="467" y="1046.44" as="targetPoint" />
          </mxGeometry>
        </mxCell>
        <mxCell id="QekTmRkoF0TSVLQIzqgp-58" value="Nome do chefe" style="ellipse;whiteSpace=wrap;html=1;align=center;" parent="1" vertex="1">
          <mxGeometry x="337" y="1046" width="100" height="40" as="geometry" />
        </mxCell>
        <mxCell id="QekTmRkoF0TSVLQIzqgp-59" value="" style="endArrow=none;html=1;rounded=0;" parent="1" source="QekTmRkoF0TSVLQIzqgp-46" target="QekTmRkoF0TSVLQIzqgp-58" edge="1">
          <mxGeometry relative="1" as="geometry">
            <mxPoint x="337" y="1026.44" as="sourcePoint" />
            <mxPoint x="497" y="1026.44" as="targetPoint" />
          </mxGeometry>
        </mxCell>
        <mxCell id="QekTmRkoF0TSVLQIzqgp-62" value="Participações" style="whiteSpace=wrap;html=1;align=center;" parent="1" vertex="1">
          <mxGeometry x="426.5" y="916" width="100" height="40" as="geometry" />
        </mxCell>
        <mxCell id="QekTmRkoF0TSVLQIzqgp-63" value="Resultado" style="ellipse;whiteSpace=wrap;html=1;align=center;" parent="1" vertex="1">
          <mxGeometry x="380" y="970" width="85" height="40" as="geometry" />
        </mxCell>
        <mxCell id="QekTmRkoF0TSVLQIzqgp-65" value="Posição" style="ellipse;whiteSpace=wrap;html=1;align=center;" parent="1" vertex="1">
          <mxGeometry x="491.75" y="970" width="85" height="40" as="geometry" />
        </mxCell>
        <mxCell id="QekTmRkoF0TSVLQIzqgp-66" value="" style="endArrow=none;html=1;rounded=0;" parent="1" source="QekTmRkoF0TSVLQIzqgp-63" target="QekTmRkoF0TSVLQIzqgp-62" edge="1">
          <mxGeometry relative="1" as="geometry">
            <mxPoint x="467.5" y="968.44" as="sourcePoint" />
            <mxPoint x="627.5" y="968.44" as="targetPoint" />
          </mxGeometry>
        </mxCell>
        <mxCell id="QekTmRkoF0TSVLQIzqgp-67" value="" style="endArrow=none;html=1;rounded=0;" parent="1" source="QekTmRkoF0TSVLQIzqgp-62" target="QekTmRkoF0TSVLQIzqgp-65" edge="1">
          <mxGeometry relative="1" as="geometry">
            <mxPoint x="567.5" y="938.44" as="sourcePoint" />
            <mxPoint x="727.5" y="938.44" as="targetPoint" />
          </mxGeometry>
        </mxCell>
        <mxCell id="QekTmRkoF0TSVLQIzqgp-69" value="Inscrições" style="whiteSpace=wrap;html=1;align=center;" parent="1" vertex="1">
          <mxGeometry x="427" y="746.44" width="100" height="40" as="geometry" />
        </mxCell>
        <mxCell id="QekTmRkoF0TSVLQIzqgp-70" value="Dia e Hora" style="ellipse;whiteSpace=wrap;html=1;align=center;" parent="1" vertex="1">
          <mxGeometry x="637" y="876" width="100" height="40" as="geometry" />
        </mxCell>
        <mxCell id="QekTmRkoF0TSVLQIzqgp-71" value="" style="endArrow=none;html=1;rounded=0;" parent="1" source="QekTmRkoF0TSVLQIzqgp-3" target="QekTmRkoF0TSVLQIzqgp-70" edge="1">
          <mxGeometry relative="1" as="geometry">
            <mxPoint x="667" y="896.44" as="sourcePoint" />
            <mxPoint x="827" y="896.44" as="targetPoint" />
          </mxGeometry>
        </mxCell>
        <mxCell id="QekTmRkoF0TSVLQIzqgp-73" value="" style="endArrow=none;html=1;rounded=0;entryX=0.5;entryY=1;entryDx=0;entryDy=0;" parent="1" source="QekTmRkoF0TSVLQIzqgp-3" target="QekTmRkoF0TSVLQIzqgp-74" edge="1">
          <mxGeometry relative="1" as="geometry">
            <mxPoint x="687" y="906.44" as="sourcePoint" />
            <mxPoint x="717" y="846.44" as="targetPoint" />
          </mxGeometry>
        </mxCell>
        <mxCell id="QekTmRkoF0TSVLQIzqgp-81" value="1" style="edgeLabel;html=1;align=center;verticalAlign=middle;resizable=0;points=[];" parent="QekTmRkoF0TSVLQIzqgp-73" vertex="1" connectable="0">
          <mxGeometry x="-0.5138" y="1" relative="1" as="geometry">
            <mxPoint x="-6" y="-1" as="offset" />
          </mxGeometry>
        </mxCell>
        <mxCell id="QekTmRkoF0TSVLQIzqgp-74" value="Associar" style="shape=rhombus;perimeter=rhombusPerimeter;whiteSpace=wrap;html=1;align=center;" parent="1" vertex="1">
          <mxGeometry x="577" y="746.44" width="100" height="40" as="geometry" />
        </mxCell>
        <mxCell id="QekTmRkoF0TSVLQIzqgp-75" value="Locais" style="whiteSpace=wrap;html=1;align=center;" parent="1" vertex="1">
          <mxGeometry x="577" y="666.44" width="100" height="40" as="geometry" />
        </mxCell>
        <mxCell id="QekTmRkoF0TSVLQIzqgp-76" value="" style="endArrow=none;html=1;rounded=0;exitX=0.5;exitY=0;exitDx=0;exitDy=0;" parent="1" source="QekTmRkoF0TSVLQIzqgp-74" target="QekTmRkoF0TSVLQIzqgp-75" edge="1">
          <mxGeometry relative="1" as="geometry">
            <mxPoint x="697" y="786.44" as="sourcePoint" />
            <mxPoint x="737" y="786.44" as="targetPoint" />
          </mxGeometry>
        </mxCell>
        <mxCell id="QekTmRkoF0TSVLQIzqgp-80" value="N" style="edgeLabel;html=1;align=center;verticalAlign=middle;resizable=0;points=[];" parent="QekTmRkoF0TSVLQIzqgp-76" vertex="1" connectable="0">
          <mxGeometry x="0.5552" y="1" relative="1" as="geometry">
            <mxPoint x="-7" as="offset" />
          </mxGeometry>
        </mxCell>
        <mxCell id="QekTmRkoF0TSVLQIzqgp-77" value="Nome do espaço" style="ellipse;whiteSpace=wrap;html=1;align=center;" parent="1" vertex="1">
          <mxGeometry x="702" y="666.44" width="100" height="40" as="geometry" />
        </mxCell>
        <mxCell id="QekTmRkoF0TSVLQIzqgp-78" value="Lotação" style="ellipse;whiteSpace=wrap;html=1;align=center;" parent="1" vertex="1">
          <mxGeometry x="452" y="686.44" width="100" height="40" as="geometry" />
        </mxCell>
        <mxCell id="QekTmRkoF0TSVLQIzqgp-79" value="Morada" style="ellipse;whiteSpace=wrap;html=1;align=center;" parent="1" vertex="1">
          <mxGeometry x="452" y="636.44" width="100" height="40" as="geometry" />
        </mxCell>
        <mxCell id="QekTmRkoF0TSVLQIzqgp-83" value="" style="endArrow=none;html=1;rounded=0;" parent="1" source="QekTmRkoF0TSVLQIzqgp-75" target="QekTmRkoF0TSVLQIzqgp-79" edge="1">
          <mxGeometry relative="1" as="geometry">
            <mxPoint x="547" y="766.44" as="sourcePoint" />
            <mxPoint x="547" y="796.44" as="targetPoint" />
          </mxGeometry>
        </mxCell>
        <mxCell id="QekTmRkoF0TSVLQIzqgp-84" value="" style="endArrow=none;html=1;rounded=0;" parent="1" source="QekTmRkoF0TSVLQIzqgp-78" target="QekTmRkoF0TSVLQIzqgp-75" edge="1">
          <mxGeometry relative="1" as="geometry">
            <mxPoint x="557" y="776.44" as="sourcePoint" />
            <mxPoint x="557" y="806.44" as="targetPoint" />
          </mxGeometry>
        </mxCell>
        <mxCell id="QekTmRkoF0TSVLQIzqgp-86" value="" style="endArrow=none;html=1;rounded=0;" parent="1" source="QekTmRkoF0TSVLQIzqgp-75" target="QekTmRkoF0TSVLQIzqgp-77" edge="1">
          <mxGeometry relative="1" as="geometry">
            <mxPoint x="727" y="766.44" as="sourcePoint" />
            <mxPoint x="887" y="766.44" as="targetPoint" />
          </mxGeometry>
        </mxCell>
        <mxCell id="QekTmRkoF0TSVLQIzqgp-88" value="Canais Televisivos" style="whiteSpace=wrap;html=1;align=center;" parent="1" vertex="1">
          <mxGeometry x="897" y="826.44" width="100" height="40" as="geometry" />
        </mxCell>
        <mxCell id="QekTmRkoF0TSVLQIzqgp-95" style="edgeStyle=orthogonalEdgeStyle;rounded=0;orthogonalLoop=1;jettySize=auto;html=1;exitX=0.5;exitY=1;exitDx=0;exitDy=0;endArrow=none;endFill=0;" parent="1" source="QekTmRkoF0TSVLQIzqgp-89" target="QekTmRkoF0TSVLQIzqgp-94" edge="1">
          <mxGeometry relative="1" as="geometry" />
        </mxCell>
        <mxCell id="QekTmRkoF0TSVLQIzqgp-89" value="Transmitir" style="shape=rhombus;perimeter=rhombusPerimeter;whiteSpace=wrap;html=1;align=center;" parent="1" vertex="1">
          <mxGeometry x="747" y="826.44" width="100" height="40" as="geometry" />
        </mxCell>
        <mxCell id="QekTmRkoF0TSVLQIzqgp-90" value="" style="endArrow=none;html=1;rounded=0;entryX=0;entryY=0.5;entryDx=0;entryDy=0;" parent="1" source="QekTmRkoF0TSVLQIzqgp-3" target="QekTmRkoF0TSVLQIzqgp-89" edge="1">
          <mxGeometry relative="1" as="geometry">
            <mxPoint x="747" y="906.44" as="sourcePoint" />
            <mxPoint x="747" y="866.44" as="targetPoint" />
          </mxGeometry>
        </mxCell>
        <mxCell id="QekTmRkoF0TSVLQIzqgp-91" value="N" style="edgeLabel;html=1;align=center;verticalAlign=middle;resizable=0;points=[];" parent="QekTmRkoF0TSVLQIzqgp-90" vertex="1" connectable="0">
          <mxGeometry x="-0.5138" y="1" relative="1" as="geometry">
            <mxPoint x="-8" y="-7" as="offset" />
          </mxGeometry>
        </mxCell>
        <mxCell id="QekTmRkoF0TSVLQIzqgp-92" value="" style="endArrow=none;html=1;rounded=0;entryX=1;entryY=0.5;entryDx=0;entryDy=0;" parent="1" source="QekTmRkoF0TSVLQIzqgp-88" target="QekTmRkoF0TSVLQIzqgp-89" edge="1">
          <mxGeometry relative="1" as="geometry">
            <mxPoint x="707" y="906.44" as="sourcePoint" />
            <mxPoint x="707" y="946.44" as="targetPoint" />
          </mxGeometry>
        </mxCell>
        <mxCell id="QekTmRkoF0TSVLQIzqgp-93" value="N" style="edgeLabel;html=1;align=center;verticalAlign=middle;resizable=0;points=[];" parent="QekTmRkoF0TSVLQIzqgp-92" vertex="1" connectable="0">
          <mxGeometry x="-0.5138" y="1" relative="1" as="geometry">
            <mxPoint x="1" y="-9" as="offset" />
          </mxGeometry>
        </mxCell>
        <mxCell id="QekTmRkoF0TSVLQIzqgp-94" value="Transmissões" style="whiteSpace=wrap;html=1;align=center;" parent="1" vertex="1">
          <mxGeometry x="747" y="916.44" width="100" height="40" as="geometry" />
        </mxCell>
        <mxCell id="QekTmRkoF0TSVLQIzqgp-97" style="edgeStyle=orthogonalEdgeStyle;rounded=0;orthogonalLoop=1;jettySize=auto;html=1;exitX=0.5;exitY=0;exitDx=0;exitDy=0;endArrow=none;endFill=0;" parent="1" source="QekTmRkoF0TSVLQIzqgp-96" target="QekTmRkoF0TSVLQIzqgp-3" edge="1">
          <mxGeometry relative="1" as="geometry" />
        </mxCell>
        <mxCell id="QekTmRkoF0TSVLQIzqgp-105" value="N" style="edgeLabel;html=1;align=center;verticalAlign=middle;resizable=0;points=[];" parent="QekTmRkoF0TSVLQIzqgp-97" vertex="1" connectable="0">
          <mxGeometry x="0.7638" y="1" relative="1" as="geometry">
            <mxPoint x="-5" y="4" as="offset" />
          </mxGeometry>
        </mxCell>
        <mxCell id="QekTmRkoF0TSVLQIzqgp-99" style="edgeStyle=orthogonalEdgeStyle;rounded=0;orthogonalLoop=1;jettySize=auto;html=1;exitX=0.5;exitY=1;exitDx=0;exitDy=0;endArrow=none;endFill=0;" parent="1" source="QekTmRkoF0TSVLQIzqgp-96" target="QekTmRkoF0TSVLQIzqgp-98" edge="1">
          <mxGeometry relative="1" as="geometry" />
        </mxCell>
        <mxCell id="QekTmRkoF0TSVLQIzqgp-104" value="1" style="edgeLabel;html=1;align=center;verticalAlign=middle;resizable=0;points=[];" parent="QekTmRkoF0TSVLQIzqgp-99" vertex="1" connectable="0">
          <mxGeometry x="0.5121" relative="1" as="geometry">
            <mxPoint x="-6" as="offset" />
          </mxGeometry>
        </mxCell>
        <mxCell id="QekTmRkoF0TSVLQIzqgp-96" value="Associar" style="shape=rhombus;perimeter=rhombusPerimeter;whiteSpace=wrap;html=1;align=center;" parent="1" vertex="1">
          <mxGeometry x="577" y="916.44" width="100" height="40" as="geometry" />
        </mxCell>
        <mxCell id="QekTmRkoF0TSVLQIzqgp-98" value="Modalidades" style="whiteSpace=wrap;html=1;align=center;" parent="1" vertex="1">
          <mxGeometry x="577" y="1006" width="100" height="40" as="geometry" />
        </mxCell>
        <mxCell id="QekTmRkoF0TSVLQIzqgp-100" value="Descrição" style="ellipse;whiteSpace=wrap;html=1;align=center;" parent="1" vertex="1">
          <mxGeometry x="519.25" y="1087.54" width="100" height="40" as="geometry" />
        </mxCell>
        <mxCell id="QekTmRkoF0TSVLQIzqgp-101" value="" style="endArrow=none;html=1;rounded=0;" parent="1" source="QekTmRkoF0TSVLQIzqgp-100" target="QekTmRkoF0TSVLQIzqgp-98" edge="1">
          <mxGeometry relative="1" as="geometry">
            <mxPoint x="656.75" y="1147.54" as="sourcePoint" />
            <mxPoint x="816.75" y="1147.54" as="targetPoint" />
          </mxGeometry>
        </mxCell>
        <mxCell id="QekTmRkoF0TSVLQIzqgp-102" value="Nº Atletas" style="ellipse;whiteSpace=wrap;html=1;align=center;" parent="1" vertex="1">
          <mxGeometry x="626.75" y="1087.54" width="100" height="40" as="geometry" />
        </mxCell>
        <mxCell id="QekTmRkoF0TSVLQIzqgp-103" value="" style="endArrow=none;html=1;rounded=0;" parent="1" source="QekTmRkoF0TSVLQIzqgp-98" target="QekTmRkoF0TSVLQIzqgp-102" edge="1">
          <mxGeometry relative="1" as="geometry">
            <mxPoint x="686.75" y="1097.54" as="sourcePoint" />
            <mxPoint x="846.75" y="1097.54" as="targetPoint" />
          </mxGeometry>
        </mxCell>
        <mxCell id="Kjb1MWBM2-qfGe28SI_8-1" value="Associar" style="shape=rhombus;perimeter=rhombusPerimeter;whiteSpace=wrap;html=1;align=center;" parent="1" vertex="1">
          <mxGeometry x="747" y="1006.44" width="100" height="40" as="geometry" />
        </mxCell>
        <mxCell id="Kjb1MWBM2-qfGe28SI_8-2" value="Patrocinadores" style="whiteSpace=wrap;html=1;align=center;" parent="1" vertex="1">
          <mxGeometry x="896.75" y="1006" width="100" height="40" as="geometry" />
        </mxCell>
        <mxCell id="Kjb1MWBM2-qfGe28SI_8-3" value="" style="endArrow=none;html=1;rounded=0;exitX=0.103;exitY=-0.025;exitDx=0;exitDy=0;exitPerimeter=0;entryX=0.104;entryY=1.036;entryDx=0;entryDy=0;entryPerimeter=0;" parent="1" source="Kjb1MWBM2-qfGe28SI_8-2" target="Kjb1MWBM2-qfGe28SI_8-2" edge="1">
          <mxGeometry relative="1" as="geometry">
            <mxPoint x="776.75" y="1155.54" as="sourcePoint" />
            <mxPoint x="926.75" y="1135.54" as="targetPoint" />
          </mxGeometry>
        </mxCell>
        <mxCell id="Kjb1MWBM2-qfGe28SI_8-4" value="" style="endArrow=none;html=1;rounded=0;entryX=1;entryY=0.5;entryDx=0;entryDy=0;" parent="1" source="Kjb1MWBM2-qfGe28SI_8-2" target="Kjb1MWBM2-qfGe28SI_8-1" edge="1">
          <mxGeometry relative="1" as="geometry">
            <mxPoint x="856.75" y="1125.54" as="sourcePoint" />
            <mxPoint x="816.75" y="1125.54" as="targetPoint" />
          </mxGeometry>
        </mxCell>
        <mxCell id="Kjb1MWBM2-qfGe28SI_8-5" value="1" style="edgeLabel;html=1;align=center;verticalAlign=middle;resizable=0;points=[];" parent="Kjb1MWBM2-qfGe28SI_8-4" vertex="1" connectable="0">
          <mxGeometry x="-0.5138" y="1" relative="1" as="geometry">
            <mxPoint x="1" y="-9" as="offset" />
          </mxGeometry>
        </mxCell>
        <mxCell id="Kjb1MWBM2-qfGe28SI_8-8" value="" style="endArrow=none;html=1;rounded=0;entryX=0;entryY=0.5;entryDx=0;entryDy=0;" parent="1" source="QekTmRkoF0TSVLQIzqgp-98" target="Kjb1MWBM2-qfGe28SI_8-1" edge="1">
          <mxGeometry relative="1" as="geometry">
            <mxPoint x="816.75" y="1135.64" as="sourcePoint" />
            <mxPoint x="876.75" y="1135.64" as="targetPoint" />
          </mxGeometry>
        </mxCell>
        <mxCell id="Kjb1MWBM2-qfGe28SI_8-9" value="1" style="edgeLabel;html=1;align=center;verticalAlign=middle;resizable=0;points=[];" parent="Kjb1MWBM2-qfGe28SI_8-8" vertex="1" connectable="0">
          <mxGeometry x="-0.5138" y="1" relative="1" as="geometry">
            <mxPoint x="-8" y="-7" as="offset" />
          </mxGeometry>
        </mxCell>
        <mxCell id="Kjb1MWBM2-qfGe28SI_8-10" value="Nome da Empresa" style="ellipse;whiteSpace=wrap;html=1;align=center;" parent="1" vertex="1">
          <mxGeometry x="897" y="1087.54" width="100" height="40" as="geometry" />
        </mxCell>
        <mxCell id="Kjb1MWBM2-qfGe28SI_8-11" value="Valor Pago" style="ellipse;whiteSpace=wrap;html=1;align=center;" parent="1" vertex="1">
          <mxGeometry x="896.75" y="916.44" width="100" height="40" as="geometry" />
        </mxCell>
        <mxCell id="Kjb1MWBM2-qfGe28SI_8-12" value="" style="endArrow=none;html=1;rounded=0;" parent="1" source="Kjb1MWBM2-qfGe28SI_8-2" target="Kjb1MWBM2-qfGe28SI_8-10" edge="1">
          <mxGeometry relative="1" as="geometry">
            <mxPoint x="716.75" y="1175.54" as="sourcePoint" />
            <mxPoint x="733.75" y="1196.54" as="targetPoint" />
          </mxGeometry>
        </mxCell>
        <mxCell id="Kjb1MWBM2-qfGe28SI_8-13" value="" style="endArrow=none;html=1;rounded=0;" parent="1" source="Kjb1MWBM2-qfGe28SI_8-2" target="Kjb1MWBM2-qfGe28SI_8-11" edge="1">
          <mxGeometry relative="1" as="geometry">
            <mxPoint x="906.75" y="1205.54" as="sourcePoint" />
            <mxPoint x="923.75" y="1226.54" as="targetPoint" />
          </mxGeometry>
        </mxCell>
        <mxCell id="Kjb1MWBM2-qfGe28SI_8-15" value="" style="endArrow=none;html=1;rounded=0;" parent="1" source="QekTmRkoF0TSVLQIzqgp-62" target="Kjb1MWBM2-qfGe28SI_8-16" edge="1">
          <mxGeometry relative="1" as="geometry">
            <mxPoint x="447" y="1116.44" as="sourcePoint" />
            <mxPoint x="477" y="996.44" as="targetPoint" />
          </mxGeometry>
        </mxCell>
        <mxCell id="Kjb1MWBM2-qfGe28SI_8-16" value="Medalha" style="ellipse;whiteSpace=wrap;html=1;align=center;dashed=1;" parent="1" vertex="1">
          <mxGeometry x="427.5" y="1020" width="100" height="40" as="geometry" />
        </mxCell>
        <mxCell id="Kjb1MWBM2-qfGe28SI_8-18" value="" style="endArrow=none;html=1;rounded=0;" parent="1" source="QekTmRkoF0TSVLQIzqgp-25" target="QekTmRkoF0TSVLQIzqgp-2" edge="1">
          <mxGeometry relative="1" as="geometry">
            <mxPoint x="147" y="876.44" as="sourcePoint" />
            <mxPoint x="198" y="901.44" as="targetPoint" />
          </mxGeometry>
        </mxCell>
        <mxCell id="Kjb1MWBM2-qfGe28SI_8-19" value="Associar" style="shape=rhombus;perimeter=rhombusPerimeter;whiteSpace=wrap;html=1;align=center;" parent="1" vertex="1">
          <mxGeometry x="737" y="746.44" width="100" height="40" as="geometry" />
        </mxCell>
        <mxCell id="Kjb1MWBM2-qfGe28SI_8-20" value="" style="endArrow=none;html=1;rounded=0;entryX=0;entryY=0.5;entryDx=0;entryDy=0;edgeStyle=orthogonalEdgeStyle;" parent="1" source="QekTmRkoF0TSVLQIzqgp-3" target="Kjb1MWBM2-qfGe28SI_8-19" edge="1">
          <mxGeometry relative="1" as="geometry">
            <mxPoint x="717" y="796.44" as="sourcePoint" />
            <mxPoint x="717" y="756.44" as="targetPoint" />
            <Array as="points">
              <mxPoint x="667" y="786" />
              <mxPoint x="700" y="786" />
              <mxPoint x="700" y="766" />
            </Array>
          </mxGeometry>
        </mxCell>
        <mxCell id="Kjb1MWBM2-qfGe28SI_8-21" value="1" style="edgeLabel;html=1;align=center;verticalAlign=middle;resizable=0;points=[];" parent="Kjb1MWBM2-qfGe28SI_8-20" vertex="1" connectable="0">
          <mxGeometry x="-0.5138" y="1" relative="1" as="geometry">
            <mxPoint x="-6" y="20" as="offset" />
          </mxGeometry>
        </mxCell>
        <mxCell id="Kjb1MWBM2-qfGe28SI_8-22" value="Records" style="whiteSpace=wrap;html=1;align=center;" parent="1" vertex="1">
          <mxGeometry x="897" y="746.44" width="100" height="40" as="geometry" />
        </mxCell>
        <mxCell id="Kjb1MWBM2-qfGe28SI_8-23" value="" style="endArrow=none;html=1;rounded=0;entryX=1;entryY=0.5;entryDx=0;entryDy=0;" parent="1" source="Kjb1MWBM2-qfGe28SI_8-22" target="Kjb1MWBM2-qfGe28SI_8-19" edge="1">
          <mxGeometry relative="1" as="geometry">
            <mxPoint x="807" y="806.44" as="sourcePoint" />
            <mxPoint x="807" y="766.44" as="targetPoint" />
          </mxGeometry>
        </mxCell>
        <mxCell id="Kjb1MWBM2-qfGe28SI_8-24" value="1" style="edgeLabel;html=1;align=center;verticalAlign=middle;resizable=0;points=[];" parent="Kjb1MWBM2-qfGe28SI_8-23" vertex="1" connectable="0">
          <mxGeometry x="-0.5138" y="1" relative="1" as="geometry">
            <mxPoint x="6" y="-9" as="offset" />
          </mxGeometry>
        </mxCell>
        <mxCell id="Kjb1MWBM2-qfGe28SI_8-25" value="Tempo" style="ellipse;whiteSpace=wrap;html=1;align=center;" parent="1" vertex="1">
          <mxGeometry x="847" y="686.44" width="100" height="40" as="geometry" />
        </mxCell>
        <mxCell id="Kjb1MWBM2-qfGe28SI_8-26" value="Nº atleta" style="ellipse;whiteSpace=wrap;html=1;align=center;" parent="1" vertex="1">
          <mxGeometry x="967" y="686.44" width="100" height="40" as="geometry" />
        </mxCell>
        <mxCell id="Kjb1MWBM2-qfGe28SI_8-27" value="" style="endArrow=none;html=1;rounded=0;" parent="1" source="Kjb1MWBM2-qfGe28SI_8-22" target="Kjb1MWBM2-qfGe28SI_8-25" edge="1">
          <mxGeometry relative="1" as="geometry">
            <mxPoint x="1007" y="766.44" as="sourcePoint" />
            <mxPoint x="1047" y="766.44" as="targetPoint" />
          </mxGeometry>
        </mxCell>
        <mxCell id="Kjb1MWBM2-qfGe28SI_8-28" value="" style="endArrow=none;html=1;rounded=0;" parent="1" source="Kjb1MWBM2-qfGe28SI_8-22" target="Kjb1MWBM2-qfGe28SI_8-26" edge="1">
          <mxGeometry relative="1" as="geometry">
            <mxPoint x="1017" y="806.44" as="sourcePoint" />
            <mxPoint x="1057" y="806.44" as="targetPoint" />
          </mxGeometry>
        </mxCell>
        <mxCell id="Kjb1MWBM2-qfGe28SI_8-29" value="Reservar" style="shape=rhombus;perimeter=rhombusPerimeter;whiteSpace=wrap;html=1;align=center;" parent="1" vertex="1">
          <mxGeometry x="577" y="580" width="100" height="40" as="geometry" />
        </mxCell>
        <mxCell id="Kjb1MWBM2-qfGe28SI_8-30" value="Bilhetes" style="whiteSpace=wrap;html=1;align=center;" parent="1" vertex="1">
          <mxGeometry x="576.75" y="500.00000000000006" width="100" height="40" as="geometry" />
        </mxCell>
        <mxCell id="LGdqduvWXbEI8zTOooyl-8" value="" style="endArrow=none;html=1;rounded=0;entryX=0.5;entryY=1;entryDx=0;entryDy=0;" parent="1" source="QekTmRkoF0TSVLQIzqgp-75" target="Kjb1MWBM2-qfGe28SI_8-29" edge="1">
          <mxGeometry relative="1" as="geometry">
            <mxPoint x="676.75" y="546.44" as="sourcePoint" />
            <mxPoint x="732" y="576.44" as="targetPoint" />
          </mxGeometry>
        </mxCell>
        <mxCell id="LGdqduvWXbEI8zTOooyl-9" value="1" style="edgeLabel;html=1;align=center;verticalAlign=middle;resizable=0;points=[];" parent="LGdqduvWXbEI8zTOooyl-8" vertex="1" connectable="0">
          <mxGeometry x="-0.5138" y="1" relative="1" as="geometry">
            <mxPoint x="-6" y="1" as="offset" />
          </mxGeometry>
        </mxCell>
        <mxCell id="LGdqduvWXbEI8zTOooyl-10" value="" style="endArrow=none;html=1;rounded=0;entryX=0.5;entryY=0;entryDx=0;entryDy=0;" parent="1" source="Kjb1MWBM2-qfGe28SI_8-30" target="Kjb1MWBM2-qfGe28SI_8-29" edge="1">
          <mxGeometry relative="1" as="geometry">
            <mxPoint x="852" y="586.44" as="sourcePoint" />
            <mxPoint x="902" y="586.44" as="targetPoint" />
          </mxGeometry>
        </mxCell>
        <mxCell id="LGdqduvWXbEI8zTOooyl-11" value="N" style="edgeLabel;html=1;align=center;verticalAlign=middle;resizable=0;points=[];" parent="LGdqduvWXbEI8zTOooyl-10" vertex="1" connectable="0">
          <mxGeometry x="-0.5138" y="1" relative="1" as="geometry">
            <mxPoint x="-8" y="-1" as="offset" />
          </mxGeometry>
        </mxCell>
        <mxCell id="LGdqduvWXbEI8zTOooyl-14" value="Nome do titular" style="ellipse;whiteSpace=wrap;html=1;align=center;" parent="1" vertex="1">
          <mxGeometry x="720" y="500.00000000000006" width="100" height="40" as="geometry" />
        </mxCell>
        <mxCell id="LGdqduvWXbEI8zTOooyl-15" value="" style="endArrow=none;html=1;rounded=0;" parent="1" source="LGdqduvWXbEI8zTOooyl-14" target="Kjb1MWBM2-qfGe28SI_8-30" edge="1">
          <mxGeometry relative="1" as="geometry">
            <mxPoint x="972" y="626.44" as="sourcePoint" />
            <mxPoint x="955" y="605.44" as="targetPoint" />
          </mxGeometry>
        </mxCell>
        <mxCell id="LGdqduvWXbEI8zTOooyl-17" value="Data" style="ellipse;whiteSpace=wrap;html=1;align=center;" parent="1" vertex="1">
          <mxGeometry x="576.75" y="430" width="100" height="40" as="geometry" />
        </mxCell>
        <mxCell id="LGdqduvWXbEI8zTOooyl-18" value="Preço" style="ellipse;whiteSpace=wrap;html=1;align=center;" parent="1" vertex="1">
          <mxGeometry x="437" y="500.00000000000006" width="100" height="40" as="geometry" />
        </mxCell>
        <mxCell id="LGdqduvWXbEI8zTOooyl-19" value="" style="endArrow=none;html=1;rounded=0;" parent="1" source="LGdqduvWXbEI8zTOooyl-17" target="Kjb1MWBM2-qfGe28SI_8-30" edge="1">
          <mxGeometry relative="1" as="geometry">
            <mxPoint x="1072" y="566.44" as="sourcePoint" />
            <mxPoint x="1140" y="523.44" as="targetPoint" />
          </mxGeometry>
        </mxCell>
        <mxCell id="LGdqduvWXbEI8zTOooyl-20" value="" style="endArrow=none;html=1;rounded=0;" parent="1" source="LGdqduvWXbEI8zTOooyl-18" target="Kjb1MWBM2-qfGe28SI_8-30" edge="1">
          <mxGeometry relative="1" as="geometry">
            <mxPoint x="1022" y="589.44" as="sourcePoint" />
            <mxPoint x="1081.7740963855422" y="526.44" as="targetPoint" />
          </mxGeometry>
        </mxCell>
        <mxCell id="LGdqduvWXbEI8zTOooyl-35" style="rounded=0;orthogonalLoop=1;jettySize=auto;html=1;endArrow=none;endFill=0;" parent="1" source="LGdqduvWXbEI8zTOooyl-34" target="QekTmRkoF0TSVLQIzqgp-88" edge="1">
          <mxGeometry relative="1" as="geometry" />
        </mxCell>
        <mxCell id="LGdqduvWXbEI8zTOooyl-34" value="ID_Canal" style="ellipse;whiteSpace=wrap;html=1;align=center;fontStyle=4;" parent="1" vertex="1">
          <mxGeometry x="1022" y="826.44" width="100" height="40" as="geometry" />
        </mxCell>
        <mxCell id="LGdqduvWXbEI8zTOooyl-37" style="rounded=0;orthogonalLoop=1;jettySize=auto;html=1;endArrow=none;endFill=0;" parent="1" source="LGdqduvWXbEI8zTOooyl-38" target="QekTmRkoF0TSVLQIzqgp-3" edge="1">
          <mxGeometry relative="1" as="geometry">
            <mxPoint x="583.8232933628465" y="878.8561406131373" as="sourcePoint" />
          </mxGeometry>
        </mxCell>
        <mxCell id="LGdqduvWXbEI8zTOooyl-38" value="ID_prova" style="ellipse;whiteSpace=wrap;html=1;align=center;fontStyle=4;" parent="1" vertex="1">
          <mxGeometry x="510" y="876" width="100" height="40" as="geometry" />
        </mxCell>
      </root>
    </mxGraphModel>
  </diagram>
</mxfile>
